<?xml version="1.0" encoding="UTF-8" standalone="no"?>
<!-- Created with Inkscape (http://www.inkscape.org/) -->

<svg
   xmlns:dc="http://purl.org/dc/elements/1.1/"
   xmlns:cc="http://creativecommons.org/ns#"
   xmlns:rdf="http://www.w3.org/1999/02/22-rdf-syntax-ns#"
   xmlns:svg="http://www.w3.org/2000/svg"
   xmlns="http://www.w3.org/2000/svg"
   xmlns:sodipodi="http://sodipodi.sourceforge.net/DTD/sodipodi-0.dtd"
   xmlns:inkscape="http://www.inkscape.org/namespaces/inkscape"
   id="svg2"
   version="1.1"
   inkscape:version="0.91 r13725"
   width="570"
   height="570"
   viewBox="0 0 570 570"
   sodipodi:docname="email-logo.svg">
  <metadata
     id="metadata8">
    <rdf:RDF>
      <cc:Work
         rdf:about="">
        <dc:format>image/svg+xml</dc:format>
        <dc:type
           rdf:resource="http://purl.org/dc/dcmitype/StillImage" />
        <dc:title></dc:title>
      </cc:Work>
    </rdf:RDF>
  </metadata>
  <defs
     id="defs6" />
  <sodipodi:namedview
     pagecolor="#ffffff"
     bordercolor="#666666"
     borderopacity="1"
     objecttolerance="10"
     gridtolerance="10"
     guidetolerance="10"
     inkscape:pageopacity="0"
     inkscape:pageshadow="2"
     inkscape:window-width="1366"
     inkscape:window-height="701"
     id="namedview4"
     showgrid="false"
     inkscape:zoom="0.79"
     inkscape:cx="228.39934"
     inkscape:cy="312.87308"
     inkscape:window-x="-4"
     inkscape:window-y="0"
     inkscape:window-maximized="1"
     inkscape:current-layer="svg2" />
  <path
     style="fill:#000000"
     d="M -0.00756746,317.87024 1.2416429,2.2359895 l 296.5407671,0 273.33069,1.8261086 -1.24921,315.6342519 0,252.69181 -273.33069,-1.82611 -296.54076746,0 z M 486.07212,526.3913 c 5.79963,-2.85569 10.12324,-6.50856 9.63377,-8.13926 -0.17069,-0.56866 -36.15353,-34.88257 -79.96186,-76.25316 -51.74288,-48.8636 -80.14605,-75.13025 -81.06289,-74.96523 -0.77625,0.1397 -13.50744,11.90941 -28.29151,26.15491 -14.78409,14.2455 -27.16449,25.90091 -27.51201,25.90091 -0.34752,0 -12.8416,-11.76969 -27.76463,-26.15488 -17.40069,-16.77354 -27.63585,-26.06378 -28.53532,-25.9009 -2.19143,0.39681 -160.387532,149.96775 -160.395361,151.65028 -0.0099,2.13353 6.994161,7.11531 12.677346,9.01698 4.819694,1.61275 8.597478,1.6399 205.401655,1.47622 l 200.49165,-0.16676 z M 132.34756,426.29 c 42.42035,-39.67023 77.12791,-72.62515 77.12791,-73.23313 0,-1.45235 -154.425091,-149.09997 -156.290721,-149.43137 -0.922784,-0.16391 -1.614217,0.43683 -1.938913,1.68461 -0.883584,3.39555 -0.605624,290.10673 0.283586,292.51404 0.649969,1.75962 1.095918,2.03588 2.250417,1.39403 0.7919,-0.44025 36.147369,-33.25793 78.567721,-72.92818 z m 374.1829,-75.00616 c 0,-143.19967 -0.0473,-147.82471 -1.51198,-147.82471 -2.26266,0 -156.01718,147.42981 -156.01718,149.5994 0,2.21555 153.57195,146.05002 155.93749,146.05002 1.57062,0 1.59167,-1.95452 1.59167,-147.82471 z M 388.15487,284.59721 c 66.91394,-63.08984 107.71168,-102.1315 107.56192,-102.932 -0.36385,-1.94465 -6.53803,-6.45434 -11.86864,-8.66899 l -4.73186,-1.96589 -196.39999,-0.23334 c -133.76059,-0.15892 -198.179228,0.0478 -201.978645,0.64814 -8.938897,1.41243 -19.55062,7.93238 -18.313107,11.25177 0.813783,2.1828 214.958572,203.54264 216.466192,203.54264 0.8035,0 49.97236,-45.73905 109.26413,-101.64233 z"
     id="path4140"
     inkscape:connector-curvature="0"
     sodipodi:nodetypes="cccccccccssscssssssscsssssssssssssscscscsss" />
</svg>
