<?xml version="1.0" encoding="UTF-8" standalone="no"?>
<!-- Generator: Adobe Illustrator 17.1.0, SVG Export Plug-In . SVG Version: 6.00 Build 0)  -->

<svg
   xmlns:dc="http://purl.org/dc/elements/1.1/"
   xmlns:cc="http://creativecommons.org/ns#"
   xmlns:rdf="http://www.w3.org/1999/02/22-rdf-syntax-ns#"
   xmlns:svg="http://www.w3.org/2000/svg"
   xmlns="http://www.w3.org/2000/svg"
   xmlns:sodipodi="http://sodipodi.sourceforge.net/DTD/sodipodi-0.dtd"
   xmlns:inkscape="http://www.inkscape.org/namespaces/inkscape"
   version="1.1"
   id="Capa_1"
   x="0px"
   y="0px"
   viewBox="0 0 395.524 395.524"
   style="enable-background:new 0 0 395.524 395.524;"
   xml:space="preserve"
   inkscape:version="0.91 r13725"
   sodipodi:docname="favicon.svg"><metadata
     id="metadata39"><rdf:RDF><cc:Work
         rdf:about=""><dc:format>image/svg+xml</dc:format><dc:type
           rdf:resource="http://purl.org/dc/dcmitype/StillImage" /></cc:Work></rdf:RDF></metadata><defs
     id="defs37" /><sodipodi:namedview
     pagecolor="#ffffff"
     bordercolor="#666666"
     borderopacity="1"
     objecttolerance="10"
     gridtolerance="10"
     guidetolerance="10"
     inkscape:pageopacity="0"
     inkscape:pageshadow="2"
     inkscape:window-width="1440"
     inkscape:window-height="832"
     id="namedview35"
     showgrid="false"
     inkscape:zoom="0.70710678"
     inkscape:cx="24.232055"
     inkscape:cy="56.319638"
     inkscape:window-x="-4"
     inkscape:window-y="0"
     inkscape:window-maximized="1"
     inkscape:current-layer="Capa_1" /><g
     id="g5" /><g
     id="g7" /><g
     id="g9" /><g
     id="g11" /><g
     id="g13" /><g
     id="g15" /><g
     id="g17" /><g
     id="g19" /><g
     id="g21" /><g
     id="g23" /><g
     id="g25" /><g
     id="g27" /><g
     id="g29" /><g
     id="g31" /><g
     id="g33" /><g
     id="g4191"><path
       sodipodi:nodetypes="sscsscccsscsssssssssssscccccccccccsccccccccscscccccccccccccccccccccsccccccccscccccccccscccc"
       inkscape:connector-curvature="0"
       style="fill:#ac9393"
       id="path3"
       d="m 187.19,286.606 c 0,4.971 -4.029,9 -9,9 -17.005,0 -33.846,-4.27 -48.702,-12.347 -32.927,-17.903 -53.381,-52.288 -53.381,-89.735 0,-56.289 45.794,-102.083 102.083,-102.083 43.718,0 82.556,27.784 96.646,69.136 1.603,4.705 -0.912,9.818 -5.617,11.421 -4.705,1.602 -9.818,-0.911 -11.422,-5.617 -11.604,-34.058 -43.595,-56.941 -79.606,-56.941 -46.363,0 -84.083,37.72 -84.083,84.083 0,30.847 16.852,59.172 43.979,73.922 12.226,6.647 26.094,10.161 40.104,10.161 4.97,0 8.999,4.029 8.999,9 z m 50.289,-93.083 c 0,32.692 -26.597,59.29 -59.289,59.29 -32.694,0 -59.293,-26.597 -59.293,-59.29 0,-32.693 26.599,-59.29 59.293,-59.29 32.693,0 59.289,26.598 59.289,59.29 z m -18,0 c 0,-22.768 -18.522,-41.29 -41.289,-41.29 -22.769,0 -41.293,18.522 -41.293,41.29 0,22.767 18.524,41.29 41.293,41.29 22.767,0 41.289,-18.523 41.289,-41.29 z m -58.751,171.792 c -7.682,-1.494 -11.532,-3.564 -12.843,-4.584 l -4.069,-39.203 c -0.364,-3.508 -2.744,-6.48 -6.087,-7.603 -16.138,-5.419 -30.824,-13.922 -43.653,-25.273 -2.645,-2.338 -6.41,-2.916 -9.636,-1.476 L 48.362,303.298 C 44.981,302.04 36.21,294.501 27.904,280.114 19.603,265.738 17.457,254.378 18.054,250.812 L 50.11,227.584 c 2.85,-2.065 4.234,-5.601 3.545,-9.051 -1.637,-8.194 -2.467,-16.614 -2.467,-25.027 0,-8.52 0.848,-17.028 2.519,-25.287 0.699,-3.457 -0.685,-7.004 -3.541,-9.073 L 18.054,135.88 c -0.598,-3.565 1.548,-14.926 9.85,-29.303 8.305,-14.384 17.075,-21.924 20.458,-23.185 l 36.32,16.23 c 3.219,1.438 6.978,0.865 9.62,-1.462 12.766,-11.242 27.366,-19.675 43.396,-25.064 3.342,-1.124 5.72,-4.095 6.084,-7.602 l 4.106,-39.563 c 2.788,-2.3 13.699,-6.121 30.302,-6.121 16.609,0 27.523,3.826 30.307,6.125 l 4.104,39.559 c 0.364,3.507 2.742,6.479 6.085,7.602 16.021,5.386 30.623,13.82 43.397,25.067 2.644,2.327 6.401,2.899 9.619,1.462 l 36.323,-16.229 c 3.386,1.267 12.15,8.806 20.453,23.181 8.303,14.384 10.448,25.748 9.849,29.309 l -32.112,23.263 c -2.857,2.07 -4.241,5.619 -3.54,9.077 0.549,2.71 1.016,5.486 1.387,8.25 0.661,4.927 5.196,8.388 10.116,7.724 4.927,-0.661 8.385,-5.19 7.724,-10.116 -0.164,-1.226 -0.345,-2.454 -0.542,-3.679 l 27.792,-20.133 c 13.692,-8.648 5.878,-33.706 -5.085,-52.695 -5.724,-9.91 -12.539,-18.544 -19.192,-24.313 -11.189,-9.7 -19.122,-8.951 -23.93,-6.419 L 269.524,80.884 C 257.548,71.149 244.27,63.478 229.921,58.007 L 226.365,23.733 C 225.702,7.565 200.107,1.809 178.19,1.809 c -23.689,0 -47.591,6.803 -48.177,21.98 l -3.551,34.217 C 112.109,63.48 98.831,71.149 86.861,80.88 L 55.385,66.816 c -14.331,-7.51 -32.112,11.781 -43.069,30.76 -5.723,9.91 -9.793,20.13 -11.461,28.778 -2.807,14.541 1.809,21.036 6.407,23.935 l 27.76,20.112 c -1.218,7.605 -1.834,15.353 -1.834,23.104 0,7.642 0.601,15.292 1.79,22.814 L 7.262,236.403 c -4.599,2.899 -9.214,9.394 -6.407,23.934 1.668,8.648 5.738,18.868 11.461,28.778 10.953,18.972 28.722,38.249 43.051,30.769 l 31.239,-13.959 c 12.045,9.837 25.422,17.582 39.891,23.094 l 3.519,33.896 c 0.244,5.824 4.318,15.607 27.277,20.071 0.58,0.113 1.158,0.167 1.728,0.167 4.222,0 7.989,-2.985 8.825,-7.284 0.948,-4.881 -2.239,-9.606 -7.118,-10.554 z m 36.984,24.11 c -131.808,4.06599 -65.904,2.033 0,0 z" /><path
       sodipodi:nodetypes="csscsccccccccccccccscc"
       style="fill:#83c383;fill-opacity:1"
       id="path3-5"
       d="m 389.09483,243.06638 c -5.312,42.667 -26.92,80.711 -60.847,107.125 -28.551,22.229 -62.95,33.982 -98.563,33.982 -6.706,0 -13.453,-0.417 -20.214,-1.258 -5.645,-0.704 -11.346,-1.724 -16.945,-3.032 -3.754,-0.877 -6.532,-4.046 -6.91,-7.882 -1.169,-11.869 -1.011,-23.918 0.47,-35.813 10.969,-88.08 91.551,-150.814 179.626,-139.85 5.653,0.705 11.354,1.726 16.945,3.033 3.752,0.877 6.53,4.046 6.908,7.881 1.17,11.878 1.011,23.928 -0.47,35.814 z m -16.952,-27.517 c -2.884,-0.539 -5.778,-0.99 -8.658,-1.35 -78.221,-9.736 -149.796,45.982 -159.538,124.212 -0.555,4.463 -0.901,8.949 -1.037,13.438 l 82.337,-72.135 c 3.74,-3.276 9.426,-2.898 12.7,0.839 3.275,3.739 2.899,9.425 -0.839,12.7 l -82.352,72.147 c 36.849,3.805 73.113,-6.584 102.435,-29.413 30.132,-23.46 49.325,-57.25 54.043,-95.147 1.046,-8.39 1.349,-16.87 0.909,-25.291 z"
       inkscape:connector-curvature="0" /></g></svg>