<?xml version="1.0" encoding="UTF-8" standalone="no"?>
<!-- Created with Inkscape (http://www.inkscape.org/) -->

<svg
   xmlns:dc="http://purl.org/dc/elements/1.1/"
   xmlns:cc="http://creativecommons.org/ns#"
   xmlns:rdf="http://www.w3.org/1999/02/22-rdf-syntax-ns#"
   xmlns:svg="http://www.w3.org/2000/svg"
   xmlns="http://www.w3.org/2000/svg"
   xmlns:sodipodi="http://sodipodi.sourceforge.net/DTD/sodipodi-0.dtd"
   xmlns:inkscape="http://www.inkscape.org/namespaces/inkscape"
   id="svg2"
   version="1.1"
   inkscape:version="0.91 r13725"
   width="627"
   height="668"
   viewBox="0 0 627 668"
   sodipodi:docname="lattes-logo.svg">
  <metadata
     id="metadata8">
    <rdf:RDF>
      <cc:Work
         rdf:about="">
        <dc:format>image/svg+xml</dc:format>
        <dc:type
           rdf:resource="http://purl.org/dc/dcmitype/StillImage" />
        <dc:title></dc:title>
      </cc:Work>
    </rdf:RDF>
  </metadata>
  <defs
     id="defs6" />
  <sodipodi:namedview
     pagecolor="#ffffff"
     bordercolor="#666666"
     borderopacity="1"
     objecttolerance="10"
     gridtolerance="10"
     guidetolerance="10"
     inkscape:pageopacity="0"
     inkscape:pageshadow="2"
     inkscape:window-width="1440"
     inkscape:window-height="832"
     id="namedview4"
     showgrid="false"
     inkscape:zoom="0.70658683"
     inkscape:cx="350.12373"
     inkscape:cy="365.40281"
     inkscape:window-x="-4"
     inkscape:window-y="0"
     inkscape:window-maximized="1"
     inkscape:current-layer="svg2" />
  <path
     style="fill:#000000"
     d="m 0.04158159,334.88153 0,-334.87565717 313.84399841,0 313.844,0 0,334.87565717 0,334.87564 -313.844,0 -313.84399841,0 0,-334.87564 z M 217.20514,652.62216 c 147.47052,-28.29022 258.96242,-86.84432 320.54193,-168.34446 15.92067,-21.07092 33.26924,-54.27991 42.6182,-81.58067 7.80404,-22.78925 9.73973,-36.53139 9.05803,-64.30633 -0.27068,-11.02884 -0.98969,-22.30833 -1.5978,-25.06554 -0.60811,-2.75721 -2.05173,-9.71406 -3.20805,-15.45966 -5.65616,-28.10488 -22.38145,-63.13021 -43.52456,-91.14722 -3.60879,-4.78203 -11.60787,-14.32547 -17.77574,-21.20762 -24.66108,-27.51701 -29.86381,-31.80206 -34.58856,-28.48767 -4.4118,3.09485 -2.68349,13.36394 6.30992,37.4915 3.18597,8.54735 7.17861,20.7292 8.87253,27.07079 2.97102,11.12271 3.08058,12.27415 3.10038,32.5852 0.024,24.65853 -0.81061,29.19212 -8.26639,44.90084 -17.6216,37.12726 -54.61839,65.71478 -107.98725,83.44209 -30.12598,10.0068 -63.70901,15.91728 -102.40018,18.02199 -23.88885,1.2995 -76.77904,-2.24424 -105.61577,-7.07644 -27.82838,-4.66324 -69.50368,-14.26775 -93.762775,-21.60863 -8.277533,-2.50481 -13.231303,-2.24054 -13.654677,0.72845 -0.25561,1.79252 13.094293,38.9146 24.302491,67.57802 5.658731,14.4714 27.189371,71.24182 38.215381,100.76348 5.7668,15.44038 13.36345,35.51788 16.88146,44.61667 11.32864,29.2998 17.43171,45.23833 22.61371,59.05703 2.15116,5.73643 4.41495,11.03779 5.03065,11.78081 1.80038,2.17262 6.703,1.64452 34.83707,-3.75263 z M 291.4267,391.99569 c 2.29393,-1.22954 2.49063,-4.60961 0.53567,-9.20496 -3.91247,-9.19665 -20.18617,-52.18296 -23.69085,-62.57837 -16.70439,-49.54781 -24.96129,-91.89956 -25.14786,-128.98978 -0.18702,-37.17585 8.35088,-61.52021 28.1296,-80.20689 12.3763,-11.692951 33.21028,-20.516011 60.15152,-25.473774 7.61108,-1.400613 15.10847,-1.746256 37.54115,-1.730716 24.58535,0.01704 30.67628,0.357355 49.55431,2.76877 38.8002,4.95621 42.75731,5.219197 49.35149,3.279856 6.12903,-1.802543 7.30611,-3.118384 6.31772,-7.062437 -1.15981,-4.628081 -6.32799,-8.106928 -24.22948,-16.309537 C 422.54363,53.934628 411.78843,49.600806 389.40429,42.094899 340.29437,25.627249 301.1749,18.722143 256.82303,18.692546 c -22.00109,-0.01464 -25.24992,0.214832 -38.54224,2.72287 -35.66983,6.730288 -59.07447,16.173501 -81.59954,32.923449 -23.15177,17.215967 -39.050996,36.990464 -54.335736,67.579485 -12.852698,25.72182 -18.869683,50.30713 -21.325124,87.13415 -1.156338,17.34278 -0.584841,51.34692 1.127816,67.10504 2.412154,22.19434 11.489564,71.11409 14.103348,76.00541 1.966936,3.68086 6.337517,4.93306 34.002066,9.74185 15.64196,2.71895 37.22456,6.53476 47.96133,8.47959 10.73677,1.94482 27.63028,4.89598 37.54115,6.55814 9.91086,1.66215 21.6237,3.68879 26.02853,4.50363 12.92576,2.39113 46.45861,8.64475 54.05925,10.08165 8.79462,1.66262 13.11196,1.79225 15.58282,0.46788 z m 125.97661,-78.71245 c 5.60926,-1.4042 13.50477,-4.39066 18.97581,-7.17756 7.78456,-3.9654 10.692,-6.17198 17.18705,-13.044 12.82974,-13.57437 17.35704,-25.63378 17.42337,-46.41086 0.0331,-10.38693 -0.35895,-13.81288 -2.29005,-20.00925 -5.46051,-17.52124 -15.78173,-33.63818 -30.92554,-48.29127 -12.88877,-12.47112 -20.09031,-17.78187 -34.35759,-25.33691 -19.24114,-10.18886 -39.80619,-15.65734 -58.81948,-15.64077 -23.18987,0.0203 -39.79205,6.62644 -55.42634,22.05483 -12.36967,12.20676 -17.8316,26.10091 -17.8316,45.36033 0,38.92587 27.27217,77.08723 70.57736,98.75737 12.91021,6.46033 27.26482,10.63064 43.54773,12.65152 6.95379,0.86304 22.52892,-0.55769 31.93928,-2.91343 z"
     id="path4140"
     inkscape:connector-curvature="0" />
</svg>
